<svg width="14" height="14" viewBox="0 0 14 14" fill="none" xmlns="http://www.w3.org/2000/svg">
<path d="M5.572 11.916C4.9 11.916 4.27 11.79 3.682 11.538C3.10333 11.286 2.59 10.9407 2.142 10.502C1.694 10.054 1.344 9.536 1.092 8.948C0.84 8.36 0.714 7.73 0.714 7.058C0.714 6.386 0.84 5.76067 1.092 5.182C1.344 4.594 1.68933 4.076 2.128 3.628C2.576 3.18 3.094 2.83 3.682 2.578C4.27 2.326 4.9 2.2 5.572 2.2C6.244 2.2 6.874 2.326 7.462 2.578C8.05 2.83 8.56333 3.18 9.002 3.628C9.45 4.06667 9.8 4.58 10.052 5.168C10.304 5.756 10.43 6.386 10.43 7.058C10.43 7.73 10.304 8.36 10.052 8.948C9.8 9.536 9.45 10.054 9.002 10.502C8.56333 10.9407 8.05 11.286 7.462 11.538C6.874 11.79 6.244 11.916 5.572 11.916ZM5.558 9.704C6.538 9.704 7.28933 9.20467 7.812 8.206L7.322 7.94C7.11667 8.304 6.86467 8.57933 6.566 8.766C6.27667 8.94333 5.94067 9.032 5.558 9.032C5.166 9.032 4.82067 8.94333 4.522 8.766C4.23267 8.57933 3.99 8.304 3.794 7.94L3.318 8.206C3.84067 9.20467 4.58733 9.704 5.558 9.704ZM3.724 6.68C3.91067 6.68 4.06 6.61933 4.172 6.498C4.29333 6.37667 4.354 6.22733 4.354 6.05C4.354 5.87267 4.29333 5.72333 4.172 5.602C4.06 5.48067 3.91067 5.42 3.724 5.42C3.54667 5.42 3.39733 5.48067 3.276 5.602C3.15467 5.72333 3.094 5.87267 3.094 6.05C3.094 6.22733 3.15467 6.37667 3.276 6.498C3.39733 6.61933 3.54667 6.68 3.724 6.68ZM7.42 6.68C7.59733 6.68 7.74667 6.624 7.868 6.512C7.98933 6.39067 8.05 6.23667 8.05 6.05C8.05 5.87267 7.98933 5.72333 7.868 5.602C7.74667 5.48067 7.59733 5.42 7.42 5.42C7.24267 5.42 7.09333 5.48067 6.972 5.602C6.85067 5.72333 6.79 5.87267 6.79 6.05C6.79 6.22733 6.85067 6.37667 6.972 6.498C7.09333 6.61933 7.24267 6.68 7.42 6.68ZM18.0829 13.1932C17.0687 13.1932 16.1722 13.054 15.3933" fill="white"/>
</svg>